<mxfile host="55e486b9-893a-4025-a35f-8235ea8b3729" modified="2020-09-01T08:10:00.158Z" agent="5.0 (Macintosh; Intel Mac OS X 10_15_5) AppleWebKit/537.36 (KHTML, like Gecko) Code/1.48.2 Chrome/78.0.3904.130 Electron/7.3.2 Safari/537.36" etag="jY_jKGXiTY662z0uEisp" version="13.1.3">
    <diagram id="6hGFLwfOUW9BJ-s0fimq" name="Page-1">
        <mxGraphModel dx="1048" dy="815" grid="1" gridSize="10" guides="1" tooltips="1" connect="1" arrows="1" fold="1" page="1" pageScale="1" pageWidth="827" pageHeight="1169" math="0" shadow="0">
            <root>
                <mxCell id="0"/>
                <mxCell id="1" parent="0"/>
                <mxCell id="2" value="" style="rounded=1;whiteSpace=wrap;html=1;strokeWidth=5;strokeColor=#c75c5c;direction=east;arcSize=27;rotation=-15;" vertex="1" parent="1">
                    <mxGeometry x="289.67" y="220.09" width="289.66" height="87.41" as="geometry"/>
                </mxCell>
                <mxCell id="3" value="&lt;font color=&quot;#c75c5c&quot; style=&quot;font-size: 20px&quot;&gt;LOREM IPSUM&amp;nbsp; DOLOR&lt;br&gt;SIT AMET&lt;br&gt;&lt;/font&gt;" style="text;html=1;resizable=0;autosize=1;align=center;verticalAlign=middle;points=[];fillColor=none;strokeColor=none;rounded=0;rotation=-15;fontFamily=Arial Black;" vertex="1" parent="1">
                    <mxGeometry x="304.5" y="243.79" width="260" height="40" as="geometry"/>
                </mxCell>
            </root>
        </mxGraphModel>
    </diagram>
</mxfile>